*******************************************************************************
 Super 8.2011.720p.BRRip.Xvid.AC3-SiNiSTER
*******************************************************************************
-------------------------------------------------------------------------------
 General Information
-------------------------------------------------------------------------------
[img]http://madservers.net/images/470157super8 brcover.jpg[/img]
Format : AVI
Format/Info : Audio Video Interleave
Format profile : OpenDML
File size : 2.85 GiB
Duration : 1h 51mn
Overall bit rate : 3 654 Kbps
Writing library : MPlayer
Video
ID : 0
Format : MPEG-4 Visual
Format profile : Advanced Simple@L5
Format settings, BVOP : Yes
Format settings, QPel : No
Format settings, GMC : No warppoints
Format settings, Matrix : Default (H.263)
Muxing mode : Packed bitstream
Codec ID : XVID
Codec ID/Hint : XviD
Duration : 1h 51mn
Bit rate : 3 009 Kbps
Width : 1 280 pixels
Height : 528 pixels
Display aspect ratio : 2.40:1
Frame rate : 23.976 fps
Color space : YUV
Chroma subsampling : 4:2:0
Bit depth : 8 bits
Scan type : Progressive
Bits/(Pixel*Frame) : 0.186
Stream size : 2.35 GiB (82%)
Writing library : XviD 1.2.1 (UTC 2008-12-04)
Audio
ID : 1
Format : AC-3
Format/Info : Audio Coding 3
Mode extension : CM (complete main)
Codec ID : 2000
Duration : 1h 51mn
Bit rate mode : Constant
Bit rate : 640 Kbps
Channel(s) : 6 channels
Channel positions : Front: L C R, Side: L R, LFE
Sampling rate : 48.0 KHz
Bit depth : 16 bits
Stream size : 512 MiB (18%)
Alignment : Split accross interleaves
Interleave, duration : 500 ms (11.99 video frames)
Interleave, preload duration : 500 ms
Video Source: Super.8.2011.1080p.BluRay.x264-WiKi.....thanks	
Audio Source: Super.8.2011.1080p.BluRay.x264-WiKi.....thanks
Greets:
DarkScene,HDScene,Noir,CrEwSaDe,blackjesus,ViSiON,HDLiTE,UnKnOwN,IMAGiNE,
FLAWL3SS,Rx,ELEKTRI4KA,CiNEDUB,BDK,SAFCuk009,HiVE-CM8..... and everybody else we 
respect.. u know who u are
-------------------------------------------------------------------------------
 Post Information
-------------------------------------------------------------------------------
Encoded by...........: SiNiSTER
 
Have sumthing to offer..looking for suppliers... cammers,cams,screeners, audio
supplier.. and any pre retail DVD/BR any RC...if u can provide any email us at
sinister@hushmail.me
-------------------------------------------------------------------------------
 Release Notes
-------------------------------------------------------------------------------
source was nce just made a script to resize, denoise, adjust coloring slightly
and sharpen.. then just remuxed the AC3 to my encode....enjoy
-------------------------------------------------------------------------------
 ScreenShots
------------------------------------------------------------------------------- 
http://madservers.net/images/985811vlcsnap-00001.png 
http://madservers.net/images/775479vlcsnap-00002.png 
http://madservers.net/images/689125vlcsnap-00003.png 
http://madservers.net/images/427835vlcsnap-00004.png 
http://madservers.net/images/4974Super 8.2011.720p.BRRip.Xvid.jpg
-------------------------------------------------------------------------------
[img]http://leetleech.org/images/33506450373550172140.gif[/img]
-------------------------------------------------------------------------------
Generated with Cool NFO Creator - http://fly.to/coolbeans
-------------------------------------------------------------------------------